<svg width="24" height="24" viewBox="0 0 24 24" fill="none" xmlns="http://www.w3.org/2000/svg">
<path d="M8.13438 19H5.23125V8.98549H8.13438V19ZM6.68125 7.61942C5.75312 7.61942 5 6.79576 5 5.80134C5 5.32359 5.17713 4.86542 5.49243 4.5276C5.80772 4.18978 6.23535 4 6.68125 4C7.12715 4 7.55478 4.18978 7.87007 4.5276C8.18537 4.86542 8.3625 5.32359 8.3625 5.80134C8.3625 6.79576 7.60938 7.61942 6.68125 7.61942ZM18.9969 19H16.1V14.125C16.1 12.9632 16.0781 11.4732 14.5906 11.4732C13.0812 11.4732 12.85 12.7355 12.85 14.0413V19H9.95V8.98549H12.7344V10.3516H12.775C13.1625 9.56473 14.1094 8.73437 15.5219 8.73437C18.4594 8.73437 19 10.8069 19 13.4989V19H18.9969Z" fill="white"/>

</svg>
